<svg width="32" height="32" viewBox="0 0 32 32" fill="none" xmlns="http://www.w3.org/2000/svg">
  <!-- Pixel art style favicon for WPlace -->
  <rect width="32" height="32" fill="#0f172a"/>
  
  <!-- Colorful pixel grid pattern -->
  <rect x="2" y="2" width="4" height="4" fill="#ff3333"/>
  <rect x="6" y="2" width="4" height="4" fill="#3366ff"/>
  <rect x="10" y="2" width="4" height="4" fill="#33cc33"/>
  <rect x="14" y="2" width="4" height="4" fill="#ffdd33"/>
  <rect x="18" y="2" width="4" height="4" fill="#cc33ff"/>
  <rect x="22" y="2" width="4" height="4" fill="#ff8833"/>
  <rect x="26" y="2" width="4" height="4" fill="#33dddd"/>
  
  <rect x="2" y="6" width="4" height="4" fill="#3366ff"/>
  <rect x="6" y="6" width="4" height="4" fill="#33cc33"/>
  <rect x="10" y="6" width="4" height="4" fill="#ffdd33"/>
  <rect x="14" y="6" width="4" height="4" fill="#cc33ff"/>
  <rect x="18" y="6" width="4" height="4" fill="#ff8833"/>
  <rect x="22" y="6" width="4" height="4" fill="#33dddd"/>
  <rect x="26" y="6" width="4" height="4" fill="#ff3333"/>
  
  <rect x="2" y="10" width="4" height="4" fill="#33cc33"/>
  <rect x="6" y="10" width="4" height="4" fill="#ffdd33"/>
  <rect x="10" y="10" width="4" height="4" fill="#cc33ff"/>
  <rect x="14" y="10" width="4" height="4" fill="#ff8833"/>
  <rect x="18" y="10" width="4" height="4" fill="#33dddd"/>
  <rect x="22" y="10" width="4" height="4" fill="#ff3333"/>
  <rect x="26" y="10" width="4" height="4" fill="#3366ff"/>
  
  <!-- Center "W" shape in white pixels -->
  <rect x="6" y="14" width="2" height="2" fill="#ffffff"/>
  <rect x="6" y="16" width="2" height="2" fill="#ffffff"/>
  <rect x="6" y="18" width="2" height="2" fill="#ffffff"/>
  <rect x="6" y="20" width="2" height="2" fill="#ffffff"/>
  <rect x="8" y="22" width="2" height="2" fill="#ffffff"/>
  <rect x="10" y="20" width="2" height="2" fill="#ffffff"/>
  <rect x="12" y="18" width="2" height="2" fill="#ffffff"/>
  <rect x="14" y="20" width="2" height="2" fill="#ffffff"/>
  <rect x="16" y="22" width="2" height="2" fill="#ffffff"/>
  <rect x="18" y="20" width="2" height="2" fill="#ffffff"/>
  <rect x="18" y="18" width="2" height="2" fill="#ffffff"/>
  <rect x="18" y="16" width="2" height="2" fill="#ffffff"/>
  <rect x="18" y="14" width="2" height="2" fill="#ffffff"/>
  
  <!-- Bottom colorful pixels -->
  <rect x="2" y="26" width="4" height="4" fill="#ff6699"/>
  <rect x="6" y="26" width="4" height="4" fill="#ffdd33"/>
  <rect x="10" y="26" width="4" height="4" fill="#33cc33"/>
  <rect x="14" y="26" width="4" height="4" fill="#3366ff"/>
  <rect x="18" y="26" width="4" height="4" fill="#cc33ff"/>
  <rect x="22" y="26" width="4" height="4" fill="#ff8833"/>
  <rect x="26" y="26" width="4" height="4" fill="#33dddd"/>
</svg>